# xmcd
#
# Track frame offsets:
#	150
#	15062
#	33644
#	47853
#	65801
#	84283
#	101872
#	118170
#	136313
#	152413
#	171299
#	182796
#	194684
#	211144
#
# Disc length: 2963 seconds
#
# Revision: 1
# Processed by: cddbd v1.5.2PL0 Copyright (c) Steve Scherf et al.
# Submitted via: audiograbber 1.83.01
#
DISCID=c10b910e
DTITLE=Juice Newton - Golden Legends
DYEAR=2005
DGENRE=Country
TTITLE0=Queen of Hearts
TTITLE1=Angel of the Morning
TTITLE2=Loves Been a Little Hard
TTITLE3=Break it to Me Gently
TTITLE4=The Sweetest Thing
TTITLE5=A Little Love
TTITLE6=Tell Her No
TTITLE7=Heasrt of the Night
TTITLE8=Hurt
TTITLE9=You Made Me Want to Make You Mine
TTITLE10=Crazy Little Thing Called Love
TTITLE11=Stuck in the Middle
TTITLE12=Ride 'Em Cowboy
TTITLE13=When Love Comes Around the Bend
EXTD=
EXTT0=
EXTT1=
EXTT2=
EXTT3=
EXTT4=
EXTT5=
EXTT6=
EXTT7=
EXTT8=
EXTT9=
EXTT10=
EXTT11=
EXTT12=
EXTT13=
PLAYORDER=
